<mxfile host="app.diagrams.net" modified="2021-04-18T14:10:18.590Z" agent="5.0 (Windows NT 10.0; WOW64) AppleWebKit/537.36 (KHTML, like Gecko) coc_coc_browser/94.0.202 Chrome/88.0.4324.202 Safari/537.36" etag="kB0-1q0AwIjAFrYfJj-0" version="14.5.8" type="github">
  <diagram id="8YEaDloqqqw-DIfHBzM6" name="Page-1">
    <mxGraphModel dx="1343" dy="926" grid="1" gridSize="10" guides="1" tooltips="1" connect="1" arrows="1" fold="1" page="1" pageScale="1" pageWidth="827" pageHeight="1169" math="0" shadow="0">
      <root>
        <mxCell id="0" />
        <mxCell id="1" parent="0" />
        <mxCell id="KbCozuHXkRCV_PREuL3N-1" value="Staff" style="swimlane;fontStyle=2;align=center;verticalAlign=top;childLayout=stackLayout;horizontal=1;startSize=26;horizontalStack=0;resizeParent=1;resizeLast=0;collapsible=1;marginBottom=0;rounded=0;shadow=0;strokeWidth=1;" vertex="1" parent="1">
          <mxGeometry x="200" y="120" width="180" height="216" as="geometry">
            <mxRectangle x="230" y="140" width="160" height="26" as="alternateBounds" />
          </mxGeometry>
        </mxCell>
        <mxCell id="KbCozuHXkRCV_PREuL3N-2" value="-name" style="text;align=left;verticalAlign=top;spacingLeft=4;spacingRight=4;overflow=hidden;rotatable=0;points=[[0,0.5],[1,0.5]];portConstraint=eastwest;" vertex="1" parent="KbCozuHXkRCV_PREuL3N-1">
          <mxGeometry y="26" width="180" height="26" as="geometry" />
        </mxCell>
        <mxCell id="KbCozuHXkRCV_PREuL3N-3" value="-id" style="text;align=left;verticalAlign=top;spacingLeft=4;spacingRight=4;overflow=hidden;rotatable=0;points=[[0,0.5],[1,0.5]];portConstraint=eastwest;rounded=0;shadow=0;html=0;" vertex="1" parent="KbCozuHXkRCV_PREuL3N-1">
          <mxGeometry y="52" width="180" height="26" as="geometry" />
        </mxCell>
        <mxCell id="KbCozuHXkRCV_PREuL3N-4" value="-phone" style="text;align=left;verticalAlign=top;spacingLeft=4;spacingRight=4;overflow=hidden;rotatable=0;points=[[0,0.5],[1,0.5]];portConstraint=eastwest;rounded=0;shadow=0;html=0;" vertex="1" parent="KbCozuHXkRCV_PREuL3N-1">
          <mxGeometry y="78" width="180" height="26" as="geometry" />
        </mxCell>
        <mxCell id="KbCozuHXkRCV_PREuL3N-5" value="-email" style="text;align=left;verticalAlign=top;spacingLeft=4;spacingRight=4;overflow=hidden;rotatable=0;points=[[0,0.5],[1,0.5]];portConstraint=eastwest;rounded=0;shadow=0;html=0;" vertex="1" parent="KbCozuHXkRCV_PREuL3N-1">
          <mxGeometry y="104" width="180" height="26" as="geometry" />
        </mxCell>
        <mxCell id="KbCozuHXkRCV_PREuL3N-6" value="" style="line;html=1;strokeWidth=1;align=left;verticalAlign=middle;spacingTop=-1;spacingLeft=3;spacingRight=3;rotatable=0;labelPosition=right;points=[];portConstraint=eastwest;" vertex="1" parent="KbCozuHXkRCV_PREuL3N-1">
          <mxGeometry y="130" width="180" height="8" as="geometry" />
        </mxCell>
        <mxCell id="KbCozuHXkRCV_PREuL3N-7" value="+displayContract(): String" style="text;align=left;verticalAlign=top;spacingLeft=4;spacingRight=4;overflow=hidden;rotatable=0;points=[[0,0.5],[1,0.5]];portConstraint=eastwest;" vertex="1" parent="KbCozuHXkRCV_PREuL3N-1">
          <mxGeometry y="138" width="180" height="26" as="geometry" />
        </mxCell>
        <mxCell id="KbCozuHXkRCV_PREuL3N-8" value="+termsAndCondition(): boolean" style="text;align=left;verticalAlign=top;spacingLeft=4;spacingRight=4;overflow=hidden;rotatable=0;points=[[0,0.5],[1,0.5]];portConstraint=eastwest;" vertex="1" parent="KbCozuHXkRCV_PREuL3N-1">
          <mxGeometry y="164" width="180" height="26" as="geometry" />
        </mxCell>
        <mxCell id="KbCozuHXkRCV_PREuL3N-9" value="Doctor" style="swimlane;fontStyle=0;align=center;verticalAlign=top;childLayout=stackLayout;horizontal=1;startSize=26;horizontalStack=0;resizeParent=1;resizeLast=0;collapsible=1;marginBottom=0;rounded=0;shadow=0;strokeWidth=1;" vertex="1" parent="1">
          <mxGeometry x="30" y="410" width="220" height="216" as="geometry">
            <mxRectangle x="130" y="380" width="160" height="26" as="alternateBounds" />
          </mxGeometry>
        </mxCell>
        <mxCell id="KbCozuHXkRCV_PREuL3N-10" value="-speciality: String" style="text;align=left;verticalAlign=top;spacingLeft=4;spacingRight=4;overflow=hidden;rotatable=0;points=[[0,0.5],[1,0.5]];portConstraint=eastwest;" vertex="1" parent="KbCozuHXkRCV_PREuL3N-9">
          <mxGeometry y="26" width="220" height="26" as="geometry" />
        </mxCell>
        <mxCell id="KbCozuHXkRCV_PREuL3N-11" value="-department: String" style="text;align=left;verticalAlign=top;spacingLeft=4;spacingRight=4;overflow=hidden;rotatable=0;points=[[0,0.5],[1,0.5]];portConstraint=eastwest;rounded=0;shadow=0;html=0;" vertex="1" parent="KbCozuHXkRCV_PREuL3N-9">
          <mxGeometry y="52" width="220" height="26" as="geometry" />
        </mxCell>
        <mxCell id="KbCozuHXkRCV_PREuL3N-12" value="-available: boolean" style="text;align=left;verticalAlign=top;spacingLeft=4;spacingRight=4;overflow=hidden;rotatable=0;points=[[0,0.5],[1,0.5]];portConstraint=eastwest;rounded=0;shadow=0;html=0;" vertex="1" parent="KbCozuHXkRCV_PREuL3N-9">
          <mxGeometry y="78" width="220" height="26" as="geometry" />
        </mxCell>
        <mxCell id="KbCozuHXkRCV_PREuL3N-13" value="" style="line;html=1;strokeWidth=1;align=left;verticalAlign=middle;spacingTop=-1;spacingLeft=3;spacingRight=3;rotatable=0;labelPosition=right;points=[];portConstraint=eastwest;" vertex="1" parent="KbCozuHXkRCV_PREuL3N-9">
          <mxGeometry y="104" width="220" height="8" as="geometry" />
        </mxCell>
        <mxCell id="KbCozuHXkRCV_PREuL3N-14" value="+checkPatientDetails()" style="text;align=left;verticalAlign=top;spacingLeft=4;spacingRight=4;overflow=hidden;rotatable=0;points=[[0,0.5],[1,0.5]];portConstraint=eastwest;fontStyle=4" vertex="1" parent="KbCozuHXkRCV_PREuL3N-9">
          <mxGeometry y="112" width="220" height="26" as="geometry" />
        </mxCell>
        <mxCell id="KbCozuHXkRCV_PREuL3N-15" value="+prescribeMedicine(): List&lt;Medicine&gt;" style="text;align=left;verticalAlign=top;spacingLeft=4;spacingRight=4;overflow=hidden;rotatable=0;points=[[0,0.5],[1,0.5]];portConstraint=eastwest;" vertex="1" parent="KbCozuHXkRCV_PREuL3N-9">
          <mxGeometry y="138" width="220" height="26" as="geometry" />
        </mxCell>
        <mxCell id="KbCozuHXkRCV_PREuL3N-16" value="+viewAssignedTasks()" style="text;align=left;verticalAlign=top;spacingLeft=4;spacingRight=4;overflow=hidden;rotatable=0;points=[[0,0.5],[1,0.5]];portConstraint=eastwest;" vertex="1" parent="KbCozuHXkRCV_PREuL3N-9">
          <mxGeometry y="164" width="220" height="26" as="geometry" />
        </mxCell>
        <mxCell id="KbCozuHXkRCV_PREuL3N-17" value="+setAvailable(available)" style="text;align=left;verticalAlign=top;spacingLeft=4;spacingRight=4;overflow=hidden;rotatable=0;points=[[0,0.5],[1,0.5]];portConstraint=eastwest;" vertex="1" parent="KbCozuHXkRCV_PREuL3N-9">
          <mxGeometry y="190" width="220" height="26" as="geometry" />
        </mxCell>
        <mxCell id="KbCozuHXkRCV_PREuL3N-18" value="" style="endArrow=block;endSize=10;endFill=0;shadow=0;strokeWidth=1;rounded=0;edgeStyle=elbowEdgeStyle;elbow=vertical;" edge="1" parent="1" source="KbCozuHXkRCV_PREuL3N-9" target="KbCozuHXkRCV_PREuL3N-1">
          <mxGeometry width="160" relative="1" as="geometry">
            <mxPoint x="200" y="203" as="sourcePoint" />
            <mxPoint x="200" y="203" as="targetPoint" />
          </mxGeometry>
        </mxCell>
        <mxCell id="KbCozuHXkRCV_PREuL3N-19" value="Receptionist" style="swimlane;fontStyle=0;align=center;verticalAlign=top;childLayout=stackLayout;horizontal=1;startSize=26;horizontalStack=0;resizeParent=1;resizeLast=0;collapsible=1;marginBottom=0;rounded=0;shadow=0;strokeWidth=1;" vertex="1" parent="1">
          <mxGeometry x="380" y="410" width="240" height="164" as="geometry">
            <mxRectangle x="340" y="380" width="170" height="26" as="alternateBounds" />
          </mxGeometry>
        </mxCell>
        <mxCell id="KbCozuHXkRCV_PREuL3N-20" value="" style="line;html=1;strokeWidth=1;align=left;verticalAlign=middle;spacingTop=-1;spacingLeft=3;spacingRight=3;rotatable=0;labelPosition=right;points=[];portConstraint=eastwest;" vertex="1" parent="KbCozuHXkRCV_PREuL3N-19">
          <mxGeometry y="26" width="240" height="8" as="geometry" />
        </mxCell>
        <mxCell id="KbCozuHXkRCV_PREuL3N-21" value="+addNewPatient(): Patient" style="text;align=left;verticalAlign=top;spacingLeft=4;spacingRight=4;overflow=hidden;rotatable=0;points=[[0,0.5],[1,0.5]];portConstraint=eastwest;" vertex="1" parent="KbCozuHXkRCV_PREuL3N-19">
          <mxGeometry y="34" width="240" height="26" as="geometry" />
        </mxCell>
        <mxCell id="KbCozuHXkRCV_PREuL3N-22" value="+checkPatientDetails()" style="text;align=left;verticalAlign=top;spacingLeft=4;spacingRight=4;overflow=hidden;rotatable=0;points=[[0,0.5],[1,0.5]];portConstraint=eastwest;" vertex="1" parent="KbCozuHXkRCV_PREuL3N-19">
          <mxGeometry y="60" width="240" height="26" as="geometry" />
        </mxCell>
        <mxCell id="KbCozuHXkRCV_PREuL3N-23" value="+checkConsumable(): List&lt;Consumable&gt;" style="text;align=left;verticalAlign=top;spacingLeft=4;spacingRight=4;overflow=hidden;rotatable=0;points=[[0,0.5],[1,0.5]];portConstraint=eastwest;" vertex="1" parent="KbCozuHXkRCV_PREuL3N-19">
          <mxGeometry y="86" width="240" height="26" as="geometry" />
        </mxCell>
        <mxCell id="KbCozuHXkRCV_PREuL3N-24" value="+assignDoctor()" style="text;align=left;verticalAlign=top;spacingLeft=4;spacingRight=4;overflow=hidden;rotatable=0;points=[[0,0.5],[1,0.5]];portConstraint=eastwest;" vertex="1" parent="KbCozuHXkRCV_PREuL3N-19">
          <mxGeometry y="112" width="240" height="26" as="geometry" />
        </mxCell>
        <mxCell id="KbCozuHXkRCV_PREuL3N-25" value="+viewAvailableDoctor()" style="text;align=left;verticalAlign=top;spacingLeft=4;spacingRight=4;overflow=hidden;rotatable=0;points=[[0,0.5],[1,0.5]];portConstraint=eastwest;" vertex="1" parent="KbCozuHXkRCV_PREuL3N-19">
          <mxGeometry y="138" width="240" height="26" as="geometry" />
        </mxCell>
        <mxCell id="KbCozuHXkRCV_PREuL3N-26" value="" style="endArrow=block;endSize=10;endFill=0;shadow=0;strokeWidth=1;rounded=0;edgeStyle=elbowEdgeStyle;elbow=vertical;" edge="1" parent="1" source="KbCozuHXkRCV_PREuL3N-19" target="KbCozuHXkRCV_PREuL3N-1">
          <mxGeometry width="160" relative="1" as="geometry">
            <mxPoint x="210" y="373" as="sourcePoint" />
            <mxPoint x="310" y="271" as="targetPoint" />
          </mxGeometry>
        </mxCell>
        <mxCell id="KbCozuHXkRCV_PREuL3N-27" value="Contract" style="swimlane;fontStyle=0;align=center;verticalAlign=top;childLayout=stackLayout;horizontal=1;startSize=26;horizontalStack=0;resizeParent=1;resizeLast=0;collapsible=1;marginBottom=0;rounded=0;shadow=0;strokeWidth=1;" vertex="1" parent="1">
          <mxGeometry x="900" y="120" width="292" height="580" as="geometry">
            <mxRectangle x="550" y="140" width="160" height="26" as="alternateBounds" />
          </mxGeometry>
        </mxCell>
        <mxCell id="KbCozuHXkRCV_PREuL3N-28" value="-contractId: int" style="text;align=left;verticalAlign=top;spacingLeft=4;spacingRight=4;overflow=hidden;rotatable=0;points=[[0,0.5],[1,0.5]];portConstraint=eastwest;" vertex="1" parent="KbCozuHXkRCV_PREuL3N-27">
          <mxGeometry y="26" width="292" height="26" as="geometry" />
        </mxCell>
        <mxCell id="KbCozuHXkRCV_PREuL3N-29" value="-staffId: int" style="text;align=left;verticalAlign=top;spacingLeft=4;spacingRight=4;overflow=hidden;rotatable=0;points=[[0,0.5],[1,0.5]];portConstraint=eastwest;rounded=0;shadow=0;html=0;" vertex="1" parent="KbCozuHXkRCV_PREuL3N-27">
          <mxGeometry y="52" width="292" height="26" as="geometry" />
        </mxCell>
        <mxCell id="KbCozuHXkRCV_PREuL3N-30" value="-salary: double" style="text;align=left;verticalAlign=top;spacingLeft=4;spacingRight=4;overflow=hidden;rotatable=0;points=[[0,0.5],[1,0.5]];portConstraint=eastwest;rounded=0;shadow=0;html=0;" vertex="1" parent="KbCozuHXkRCV_PREuL3N-27">
          <mxGeometry y="78" width="292" height="26" as="geometry" />
        </mxCell>
        <mxCell id="KbCozuHXkRCV_PREuL3N-31" value="-startDate: Date" style="text;align=left;verticalAlign=top;spacingLeft=4;spacingRight=4;overflow=hidden;rotatable=0;points=[[0,0.5],[1,0.5]];portConstraint=eastwest;rounded=0;shadow=0;html=0;" vertex="1" parent="KbCozuHXkRCV_PREuL3N-27">
          <mxGeometry y="104" width="292" height="26" as="geometry" />
        </mxCell>
        <mxCell id="KbCozuHXkRCV_PREuL3N-32" value="-contractDuration: String" style="text;align=left;verticalAlign=top;spacingLeft=4;spacingRight=4;overflow=hidden;rotatable=0;points=[[0,0.5],[1,0.5]];portConstraint=eastwest;rounded=0;shadow=0;html=0;" vertex="1" parent="KbCozuHXkRCV_PREuL3N-27">
          <mxGeometry y="130" width="292" height="26" as="geometry" />
        </mxCell>
        <mxCell id="KbCozuHXkRCV_PREuL3N-33" value="-contractStatus: String" style="text;align=left;verticalAlign=top;spacingLeft=4;spacingRight=4;overflow=hidden;rotatable=0;points=[[0,0.5],[1,0.5]];portConstraint=eastwest;rounded=0;shadow=0;html=0;" vertex="1" parent="KbCozuHXkRCV_PREuL3N-27">
          <mxGeometry y="156" width="292" height="26" as="geometry" />
        </mxCell>
        <mxCell id="KbCozuHXkRCV_PREuL3N-34" value="" style="line;html=1;strokeWidth=1;align=left;verticalAlign=middle;spacingTop=-1;spacingLeft=3;spacingRight=3;rotatable=0;labelPosition=right;points=[];portConstraint=eastwest;" vertex="1" parent="KbCozuHXkRCV_PREuL3N-27">
          <mxGeometry y="182" width="292" height="8" as="geometry" />
        </mxCell>
        <mxCell id="KbCozuHXkRCV_PREuL3N-35" value="+createContract(): boolean" style="text;align=left;verticalAlign=top;spacingLeft=4;spacingRight=4;overflow=hidden;rotatable=0;points=[[0,0.5],[1,0.5]];portConstraint=eastwest;" vertex="1" parent="KbCozuHXkRCV_PREuL3N-27">
          <mxGeometry y="190" width="292" height="26" as="geometry" />
        </mxCell>
        <mxCell id="KbCozuHXkRCV_PREuL3N-36" value="+displayContract(): String" style="text;align=left;verticalAlign=top;spacingLeft=4;spacingRight=4;overflow=hidden;rotatable=0;points=[[0,0.5],[1,0.5]];portConstraint=eastwest;" vertex="1" parent="KbCozuHXkRCV_PREuL3N-27">
          <mxGeometry y="216" width="292" height="26" as="geometry" />
        </mxCell>
        <mxCell id="KbCozuHXkRCV_PREuL3N-37" value="+termsAndCondition(): boolean" style="text;align=left;verticalAlign=top;spacingLeft=4;spacingRight=4;overflow=hidden;rotatable=0;points=[[0,0.5],[1,0.5]];portConstraint=eastwest;" vertex="1" parent="KbCozuHXkRCV_PREuL3N-27">
          <mxGeometry y="242" width="292" height="26" as="geometry" />
        </mxCell>
        <mxCell id="KbCozuHXkRCV_PREuL3N-38" value="+getContractId(): int" style="text;align=left;verticalAlign=top;spacingLeft=4;spacingRight=4;overflow=hidden;rotatable=0;points=[[0,0.5],[1,0.5]];portConstraint=eastwest;" vertex="1" parent="KbCozuHXkRCV_PREuL3N-27">
          <mxGeometry y="268" width="292" height="26" as="geometry" />
        </mxCell>
        <mxCell id="KbCozuHXkRCV_PREuL3N-39" value="+setContractId(int contractId): void" style="text;align=left;verticalAlign=top;spacingLeft=4;spacingRight=4;overflow=hidden;rotatable=0;points=[[0,0.5],[1,0.5]];portConstraint=eastwest;" vertex="1" parent="KbCozuHXkRCV_PREuL3N-27">
          <mxGeometry y="294" width="292" height="26" as="geometry" />
        </mxCell>
        <mxCell id="KbCozuHXkRCV_PREuL3N-40" value="+getStaffId(): int" style="text;align=left;verticalAlign=top;spacingLeft=4;spacingRight=4;overflow=hidden;rotatable=0;points=[[0,0.5],[1,0.5]];portConstraint=eastwest;" vertex="1" parent="KbCozuHXkRCV_PREuL3N-27">
          <mxGeometry y="320" width="292" height="26" as="geometry" />
        </mxCell>
        <mxCell id="KbCozuHXkRCV_PREuL3N-41" value="+setStaffId(int staffId): void" style="text;align=left;verticalAlign=top;spacingLeft=4;spacingRight=4;overflow=hidden;rotatable=0;points=[[0,0.5],[1,0.5]];portConstraint=eastwest;" vertex="1" parent="KbCozuHXkRCV_PREuL3N-27">
          <mxGeometry y="346" width="292" height="26" as="geometry" />
        </mxCell>
        <mxCell id="KbCozuHXkRCV_PREuL3N-42" value="+getSalary(): double" style="text;align=left;verticalAlign=top;spacingLeft=4;spacingRight=4;overflow=hidden;rotatable=0;points=[[0,0.5],[1,0.5]];portConstraint=eastwest;" vertex="1" parent="KbCozuHXkRCV_PREuL3N-27">
          <mxGeometry y="372" width="292" height="26" as="geometry" />
        </mxCell>
        <mxCell id="KbCozuHXkRCV_PREuL3N-43" value="+setSalary(double salary): void" style="text;align=left;verticalAlign=top;spacingLeft=4;spacingRight=4;overflow=hidden;rotatable=0;points=[[0,0.5],[1,0.5]];portConstraint=eastwest;" vertex="1" parent="KbCozuHXkRCV_PREuL3N-27">
          <mxGeometry y="398" width="292" height="26" as="geometry" />
        </mxCell>
        <mxCell id="KbCozuHXkRCV_PREuL3N-44" value="+getStartDate(): Date" style="text;align=left;verticalAlign=top;spacingLeft=4;spacingRight=4;overflow=hidden;rotatable=0;points=[[0,0.5],[1,0.5]];portConstraint=eastwest;" vertex="1" parent="KbCozuHXkRCV_PREuL3N-27">
          <mxGeometry y="424" width="292" height="26" as="geometry" />
        </mxCell>
        <mxCell id="KbCozuHXkRCV_PREuL3N-45" value="+setStartDate(Date startDate): void" style="text;align=left;verticalAlign=top;spacingLeft=4;spacingRight=4;overflow=hidden;rotatable=0;points=[[0,0.5],[1,0.5]];portConstraint=eastwest;" vertex="1" parent="KbCozuHXkRCV_PREuL3N-27">
          <mxGeometry y="450" width="292" height="26" as="geometry" />
        </mxCell>
        <mxCell id="KbCozuHXkRCV_PREuL3N-46" value="+getContractDuration(): String" style="text;align=left;verticalAlign=top;spacingLeft=4;spacingRight=4;overflow=hidden;rotatable=0;points=[[0,0.5],[1,0.5]];portConstraint=eastwest;" vertex="1" parent="KbCozuHXkRCV_PREuL3N-27">
          <mxGeometry y="476" width="292" height="26" as="geometry" />
        </mxCell>
        <mxCell id="KbCozuHXkRCV_PREuL3N-47" value="+setContractDuration(String contractDuration): void" style="text;align=left;verticalAlign=top;spacingLeft=4;spacingRight=4;overflow=hidden;rotatable=0;points=[[0,0.5],[1,0.5]];portConstraint=eastwest;" vertex="1" parent="KbCozuHXkRCV_PREuL3N-27">
          <mxGeometry y="502" width="292" height="26" as="geometry" />
        </mxCell>
        <mxCell id="KbCozuHXkRCV_PREuL3N-48" value="+getContractStatus(): String" style="text;align=left;verticalAlign=top;spacingLeft=4;spacingRight=4;overflow=hidden;rotatable=0;points=[[0,0.5],[1,0.5]];portConstraint=eastwest;" vertex="1" parent="KbCozuHXkRCV_PREuL3N-27">
          <mxGeometry y="528" width="292" height="26" as="geometry" />
        </mxCell>
        <mxCell id="KbCozuHXkRCV_PREuL3N-49" value="+setContractStatus(String contractStatus): String" style="text;align=left;verticalAlign=top;spacingLeft=4;spacingRight=4;overflow=hidden;rotatable=0;points=[[0,0.5],[1,0.5]];portConstraint=eastwest;" vertex="1" parent="KbCozuHXkRCV_PREuL3N-27">
          <mxGeometry y="554" width="292" height="26" as="geometry" />
        </mxCell>
        <mxCell id="KbCozuHXkRCV_PREuL3N-50" value="" style="endArrow=open;shadow=0;strokeWidth=1;rounded=0;endFill=1;edgeStyle=elbowEdgeStyle;elbow=vertical;" edge="1" parent="1" source="KbCozuHXkRCV_PREuL3N-1" target="KbCozuHXkRCV_PREuL3N-27">
          <mxGeometry x="0.5" y="41" relative="1" as="geometry">
            <mxPoint x="380" y="192" as="sourcePoint" />
            <mxPoint x="540" y="192" as="targetPoint" />
            <mxPoint x="-40" y="32" as="offset" />
          </mxGeometry>
        </mxCell>
        <mxCell id="KbCozuHXkRCV_PREuL3N-51" value="1" style="resizable=0;align=left;verticalAlign=bottom;labelBackgroundColor=none;fontSize=12;" connectable="0" vertex="1" parent="KbCozuHXkRCV_PREuL3N-50">
          <mxGeometry x="-1" relative="1" as="geometry">
            <mxPoint y="4" as="offset" />
          </mxGeometry>
        </mxCell>
        <mxCell id="KbCozuHXkRCV_PREuL3N-52" value="1" style="resizable=0;align=right;verticalAlign=bottom;labelBackgroundColor=none;fontSize=12;" connectable="0" vertex="1" parent="KbCozuHXkRCV_PREuL3N-50">
          <mxGeometry x="1" relative="1" as="geometry">
            <mxPoint x="-7" y="4" as="offset" />
          </mxGeometry>
        </mxCell>
      </root>
    </mxGraphModel>
  </diagram>
</mxfile>
